<svg width="131" height="43" viewBox="0 0 131 43" fill="none" xmlns="http://www.w3.org/2000/svg">
<path fill-rule="evenodd" clip-rule="evenodd" d="M31.0352 9.64286H56.5888C56.9882 9.64286 57.312 9.31904 57.312 8.91964V6.75C57.312 5.1523 56.0169 3.85714 54.4192 3.85714H51.5263V0.723214C51.5263 0.323819 51.2025 0 50.8031 0H48.3924C47.993 0 47.6692 0.323819 47.6692 0.723214V3.85714H39.9549V0.723214C39.9549 0.323819 39.6311 0 39.2317 0H36.8209C36.4216 0 36.0977 0.323819 36.0977 0.723214V3.85714H33.2049C31.6072 3.85714 30.312 5.1523 30.312 6.75V8.91964C30.312 9.31904 30.6358 9.64286 31.0352 9.64286ZM17.136 39L10.416 26.52H9.408V39H0V5.16H14.832C17.552 5.16 19.856 5.64 21.744 6.6C23.632 7.528 25.056 8.824 26.016 10.488C26.976 12.12 27.456 13.96 27.456 16.008C27.456 18.312 26.816 20.344 25.536 22.104C24.288 23.832 22.448 25.064 20.016 25.8L27.648 39H17.136ZM9.408 20.088H14.064C15.344 20.088 16.304 19.784 16.944 19.176C17.584 18.568 17.904 17.688 17.904 16.536C17.904 15.448 17.568 14.6 16.896 13.992C16.256 13.352 15.312 13.032 14.064 13.032H9.408V20.088ZM39.5648 28H57.3V22H57.312V21C57.312 15.4772 52.8349 11 47.312 11H32.312C31.4123 11 30.6513 11.5941 30.4 12.4114V28.2691C30.6591 29.9576 31.1679 31.4865 31.9264 32.856C33.1104 34.936 34.7264 36.536 36.7744 37.656C38.8544 38.776 41.2224 39.336 43.8784 39.336C46.0864 39.336 48.1024 38.92 49.9264 38.088C51.7504 37.256 53.2544 36.12 54.4384 34.68C55.6544 33.208 56.4704 31.544 56.8864 29.688H46.8544C46.1824 31.096 45.0624 31.8 43.4944 31.8C42.3744 31.8 41.4464 31.448 40.7104 30.744C40.1 30.1059 39.7182 29.1913 39.5648 28ZM74.0805 39.336C70.1445 39.336 66.9125 38.408 64.3845 36.552C61.8565 34.664 60.4965 31.976 60.3045 28.488H70.3365C70.4325 29.672 70.7845 30.536 71.3925 31.08C72.0005 31.624 72.7845 31.896 73.7445 31.896C74.6085 31.896 75.3125 31.688 75.8565 31.272C76.4325 30.824 76.7205 30.216 76.7205 29.448C76.7205 28.456 76.2565 27.688 75.3285 27.144C74.4005 26.6 72.8965 25.992 70.8165 25.32C68.6085 24.584 66.8165 23.88 65.4405 23.208C64.0965 22.504 62.9125 21.496 61.8885 20.184C60.8965 18.84 60.4005 17.096 60.4005 14.952C60.4005 12.776 60.9445 10.92 62.0325 9.384C63.1205 7.816 64.6245 6.632 66.5445 5.832C68.4645 5.032 70.6405 4.632 73.0725 4.632C77.0085 4.632 80.1445 5.56 82.4805 7.41599C84.8485 9.24 86.1125 11.816 86.2725 15.144H76.0485C76.0165 14.12 75.6965 13.352 75.0885 12.84C74.5125 12.328 73.7605 12.072 72.8325 12.072C72.1285 12.072 71.5525 12.28 71.1045 12.696C70.6565 13.112 70.4325 13.704 70.4325 14.472C70.4325 15.112 70.6725 15.672 71.1525 16.152C71.6645 16.6 72.2885 17 73.0245 17.352C73.7605 17.672 74.8485 18.088 76.2885 18.6C78.4325 19.336 80.1925 20.072 81.5685 20.808C82.9765 21.512 84.1765 22.52 85.1685 23.832C86.1925 25.112 86.7045 26.744 86.7045 28.728C86.7045 30.744 86.1925 32.552 85.1685 34.152C84.1765 35.752 82.7205 37.016 80.8005 37.944C78.9125 38.872 76.6725 39.336 74.0805 39.336ZM37.5084 20.4453L41.8666 24.8036C42.1285 25.0655 42.553 25.0655 42.8149 24.8036L50.5256 17.0928C50.7875 16.831 50.7875 16.4064 50.5256 16.1446L49.5774 15.1964C49.3156 14.9345 48.891 14.9345 48.6292 15.1964L42.3408 21.4848L39.4048 18.5489C39.143 18.287 38.7184 18.287 38.4566 18.5489L37.5084 19.4971C37.2466 19.759 37.2466 20.1835 37.5084 20.4453Z" fill="#98D7C2"/>
<path d="M99.096 5.16V39H89.688V5.16H99.096ZM129.942 5.16V12.648H120.918V39H111.51V12.648H102.582V5.16H129.942Z" fill="#29A0B1"/>
</svg>
